<svg xmlns="http://www.w3.org/2000/svg" width="36" height="34" viewBox="0 0 360 340">
    <g fill="rgb(249,214,251)">
        <g>
            <path d="M103 315 c14 -29 47 -34 47 -6 0 11 -9 21 -22 25 -35 9 -37 8 -25 -19z"></path>
            <path d="M210 200 c0 -25 -4 -30 -25 -30 -14 0 -25 -6 -25 -12 0 -10 -3 -9 -9 1 -6 9 -21 12 -45 9 -32 -4 -36 -2 -36 19 0 33 -43 32 -58 -2 -23 -50 -6 -92 48 -120 26 -13 34 -14 64 -1 34 14 34 14 66 -25 41 -52 73 -52 128 -1 37 34 42 44 42 81 0 50 -25 97 -54 105 -12 3 -38 6 -58 6 -36 0 -38 -2 -38 -30z"></path>
        </g>
    </g>
    <g fill="rgb(243,153,248)">
        <g>
            <path d="M95 330 c4 -6 10 -8 14 -6 4 3 5 -9 3 -25 -3 -22 -15 -37 -43 -55 -45 -28 -69 -64 -43 -64 14 0 14 -3 4 -15 -11 -13 -15 -13 -21 -3 -13 19 -11 -29 1 -52 6 -11 17 -17 25 -14 8 4 27 -2 41 -11 21 -14 24 -19 13 -26 -21 -13 -2 -11 36 5 18 8 37 11 41 8 4 -4 4 2 1 13 -6 18 -5 18 12 -2 20 -24 41 -30 41 -13 0 6 -4 10 -10 10 -5 0 -10 9 -10 20 0 12 6 20 13 19 43 -5 74 26 42 43 -8 5 -15 16 -15 25 0 12 6 14 28 8 39 -9 51 -24 61 -80 7 -36 6 -54 -2 -65 -7 -9 -2 -5 11 8 48 50 13 160 -65 208 -16 10 -39 24 -53 33 -22 14 -100 39 -123 41 -5 0 -5 -5 -2 -10z m29 -222 c-6 -9 -44 -11 -44 -2 0 4 8 13 17 20 18 13 38 0 27 -18z"></path>
            <path d="M268 53 c-10 -2 -15 -10 -11 -19 7 -20 -26 -18 -57 3 -25 16 -25 16 -1 -10 39 -43 86 -35 104 16 6 17 -1 19 -35 10z"></path>
        </g>
    </g>
    <g fill="rgb(247,101,249)">
        <g>
            <path d="M113 293 c-9 -21 -16 -41 -15 -45 1 -4 -4 -5 -11 -2 -17 6 -69 -34 -62 -47 4 -5 18 -9 33 -10 15 0 21 -3 15 -6 -23 -9 -14 -23 10 -14 12 4 28 6 35 4 7 -3 12 4 12 16 0 25 18 37 33 22 8 -8 8 -14 -1 -23 -18 -18 -15 -23 13 -24 21 -2 25 2 20 16 -4 13 0 20 15 25 11 3 20 13 20 21 0 24 21 16 61 -25 23 -23 39 -48 39 -62 0 -13 7 -33 15 -43 14 -18 15 -16 15 28 0 26 -4 45 -9 42 -5 -3 -12 1 -15 10 -4 10 -2 13 7 8 6 -3 1 4 -13 17 -14 13 -19 20 -10 14 10 -6 9 -2 -4 12 -10 13 -23 20 -29 16 -6 -3 -7 -1 -3 5 3 6 -3 16 -15 22 -17 10 -20 9 -14 -2 3 -7 0 -5 -8 4 -8 10 -17 15 -20 11 -4 -3 -7 -1 -7 5 0 13 -23 26 -63 36 -25 6 -29 3 -44 -31z"></path>
            <path d="M1 150 c0 -14 3 -31 7 -37 12 -20 45 7 36 30 -9 24 -24 21 -25 -5 -1 -19 -3 -17 -9 7 -7 28 -8 28 -9 5z"></path>
            <path d="M128 102 c-32 -19 -35 -27 -12 -36 10 -4 13 -2 8 6 -5 8 -2 9 10 5 11 -4 15 -3 11 4 -4 6 2 13 14 16 11 3 18 9 15 14 -7 12 -15 11 -46 -9z"></path>
        </g>
    </g>
    <g fill="rgb(191,105,211)">
        <g>
            <path d="M138 308 c-31 -11 -38 -29 -9 -21 22 6 102 -28 146 -62 18 -13 38 -39 45 -57 7 -18 18 -46 26 -63 14 -30 14 -30 13 20 -1 42 -3 45 -8 20 -7 -30 -7 -30 -14 10 -3 22 -7 45 -7 50 -1 6 -11 21 -23 33 -25 27 -64 51 -53 33 14 -22 -23 1 -39 25 -17 26 -34 28 -77 12z"></path>
            <path d="M85 254 c-11 -8 -19 -18 -17 -22 2 -3 -2 -8 -9 -11 -8 -2 -9 1 -4 10 5 8 -1 5 -14 -5 -13 -12 -18 -23 -12 -29 12 -12 91 39 91 58 0 19 -9 19 -35 -1z"></path>
            <path d="M0 149 c0 -13 5 -31 10 -39 7 -11 8 -5 4 20 -8 43 -14 51 -14 19z"></path>
            <path d="M265 41 c-3 -5 3 -12 12 -15 10 -3 -3 -4 -30 -2 -39 3 -46 1 -36 -10 24 -29 94 -10 82 22 -6 16 -19 18 -28 5z"></path>
        </g>
    </g>
    <g fill="rgb(207,41,207)">
        <g>
            <path d="M144 310 c-25 -10 -44 -33 -20 -24 44 17 169 -58 197 -119 17 -34 19 -36 14 -12 -3 17 -7 38 -8 47 -1 9 -4 16 -7 15 -10 -3 -90 56 -85 63 3 4 -3 7 -12 6 -10 0 -18 6 -18 14 0 18 -31 23 -61 10z"></path>
            <path d="M97 247 c4 -6 0 -8 -10 -4 -10 4 -16 2 -14 -5 1 -6 -4 -13 -12 -16 -9 -3 -11 0 -6 9 5 8 -1 5 -13 -5 -23 -20 -30 -32 -12 -21 6 3 10 1 10 -5 0 -12 72 31 77 47 2 5 -3 10 -11 10 -8 0 -12 -5 -9 -10z"></path>
        </g>
    </g>
    <g fill="rgb(130,73,147)">
        <g>
            <path d="M216 8 c6 -10 61 -11 67 0 3 4 -12 7 -33 7 -21 1 -36 -3 -34 -7z"></path>
        </g>
    </g>
</svg>